<?xml version="1.0" encoding="UTF-8" standalone="no"?>
<svg xmlns="http://www.w3.org/2000/svg" version="1.0" width="960.000000pt" height="960.000000pt" viewBox="0 0 960.000000 960.000000" preserveAspectRatio="xMidYMid meet">
  <metadata>
Created by potrace 1.16, written by Peter Selinger 2001-2019
</metadata>
  <g transform="translate(0.000000,960.000000) scale(0.100000,-0.100000)" fill="#000000" stroke="none">
    <path d="M216 8131 c-8 -12 -24 -376 -31 -696 -10 -482 -17 -710 -21 -717 -2 -4 0 -10 6 -13 7 -5 8 -11 1 -19 -5 -6 -12 -36 -14 -66 -2 -30 -3 78 -1 240 7 569 15 936 25 1039 8 100 4 131 -21 131 -4 0 -10 -197 -14 -437 -9 -608 -34 -1797 -41 -1978 -3 -82 -12 -424 -20 -760 -8 -335 -19 -781 -25 -990 -14 -511 -38 -1543 -47 -1953 -6 -330 -6 -332 14 -332 11 0 23 -8 25 -18 4 -12 22 -21 64 -29 84 -17 4483 -40 4513 -23 24 12 1235 15 1716 4 229 -6 278 -4 322 9 44 13 101 15 355 12 375 -5 1086 -15 1393 -20 127 -3 411 -7 633 -10 l402 -5 0 67 0 67 39 -38 c22 -21 44 -35 50 -32 8 5 11 326 11 1114 0 609 4 1348 10 1642 16 865 29 1904 37 2835 l6 870 -48 -39 c-41 -34 -45 -36 -30 -13 9 15 22 27 28 27 6 0 7 3 4 6 -4 4 -14 1 -23 -7 -10 -8 -20 -13 -23 -12 -10 2 -50 -21 -50 -29 -1 -5 -1 -35 -1 -68 0 -33 -3 -60 -7 -60 -5 0 -8 44 -9 98 0 53 -4 118 -8 144 l-7 46 -72 6 c-138 10 -9135 18 -9141 7z m7754 -504 c41 -2 113 -6 160 -7 47 -2 73 -5 58 -7 -29 -5 -29 -32 1 -34 9 0 3 -6 -14 -12 -21 -7 -862 -11 -2926 -11 -2439 -1 -2899 -3 -2912 -15 -14 -11 -17 -32 -17 -101 0 -61 4 -90 13 -93 9 -4 9 -8 -2 -15 -8 -6 -11 -16 -8 -24 7 -19 -2 -30 -33 -45 -158 -72 -536 -263 -610 -308 -198 -120 -380 -241 -465 -309 -84 -68 -264 -206 -269 -206 -1 0 -1 47 1 104 3 68 1 106 -6 110 -7 5 -6 14 4 30 9 13 13 31 9 40 -8 22 130 159 278 276 57 45 110 87 118 93 19 16 240 155 303 191 188 108 458 237 524 251 92 19 22 25 -280 25 -277 0 -326 -2 -337 -15 -8 -9 -13 -53 -15 -112 l-2 -96 -94 -58 c-132 -82 -242 -152 -254 -162 -5 -4 -64 -48 -130 -97 -66 -49 -146 -110 -178 -135 -32 -25 -63 -45 -68 -45 -6 0 -9 86 -8 216 0 118 -2 218 -5 221 -11 11 170 160 303 250 l65 43 150 1 c83 0 160 4 171 9 14 6 15 9 5 10 -12 0 -11 4 4 15 15 11 16 15 5 16 -8 1 0 5 16 10 29 8 6298 4 6445 -4z m-5822 -497 c-10 -6 -14 -18 -11 -30 3 -11 1 -20 -5 -20 -6 0 -8 -8 -5 -19 3 -14 -11 -31 -59 -67 -34 -26 -65 -51 -68 -54 -3 -3 -57 -46 -120 -95 -199 -155 -525 -462 -743 -700 -198 -217 -230 -248 -239 -231 -5 9 -5 31 1 50 5 19 7 37 4 40 -25 25 470 555 697 745 161 136 420 326 515 379 11 6 27 11 35 11 12 0 12 -1 -2 -9z m2897 -1023 c17 -8 49 -18 72 -22 23 -4 48 -14 55 -23 14 -17 16 -17 -60 7 -25 7 -32 7 -29 -2 3 -7 10 -11 17 -9 7 2 21 -5 31 -14 12 -11 27 -14 46 -10 36 8 69 -14 60 -39 -6 -13 -15 -16 -40 -11 -17 3 -81 10 -142 16 -146 14 -175 19 -175 30 0 6 25 10 56 10 66 0 72 23 7 28 -45 3 -69 23 -59 48 5 14 17 16 69 11 34 -3 76 -12 92 -20z m-270 -39 c-15 -18 -36 -36 -47 -40 -29 -12 -19 -48 20 -75 47 -31 128 -60 256 -92 126 -31 158 -58 58 -48 -53 6 -289 84 -355 118 -65 34 -86 88 -48 123 20 18 92 44 124 45 16 1 15 -3 -8 -31z m-416 -351 c25 -18 58 -38 74 -44 30 -14 67 -67 67 -98 -1 -18 -3 -18 -23 6 -37 44 -181 102 -249 101 -57 -1 -39 25 37 55 43 16 43 16 94 -20z m1378 -133 c9 -9 22 -41 29 -72 13 -55 13 -56 10 -12 -2 25 -7 54 -12 65 -4 11 11 -5 34 -35 43 -56 50 -87 36 -159 -9 -43 -24 -39 -24 7 0 27 -3 33 -10 22 -15 -23 -12 -67 5 -84 19 -18 19 -37 1 -61 -13 -17 -14 -16 -21 22 -3 23 -13 49 -20 60 -14 17 -14 17 -15 -4 0 -13 -4 -23 -10 -23 -9 0 -15 29 -11 53 0 4 -3 7 -9 7 -5 0 -10 7 -10 16 0 13 3 14 14 5 15 -13 32 1 21 18 -3 6 -10 40 -15 78 -5 37 -12 78 -16 91 -7 26 1 28 23 6z m-869 -63 c39 -20 44 -20 72 -6 41 21 57 19 76 -10 11 -17 23 -24 34 -20 26 8 64 -10 78 -36 7 -13 26 -32 42 -41 56 -32 92 -135 115 -327 15 -127 11 -145 -35 -198 -17 -19 -30 -40 -30 -48 0 -20 -40 -45 -73 -45 -21 0 -28 4 -24 14 3 8 -3 22 -14 32 -10 9 -19 29 -19 44 0 16 -7 30 -15 34 -8 3 -15 17 -15 32 0 20 -4 25 -17 20 -11 -5 -26 4 -45 25 -27 29 -29 30 -24 8 14 -60 35 -232 30 -241 -8 -12 -34 10 -34 29 0 16 -41 159 -66 230 -9 24 -24 45 -35 48 -11 4 -17 10 -14 15 7 11 -30 50 -46 50 -5 0 -7 -4 -4 -10 4 -7 -3 -7 -20 0 -46 17 -63 13 -67 -17 -3 -26 -6 -28 -50 -28 -26 0 -53 -6 -60 -13 -6 -6 -9 -12 -4 -12 4 0 -4 -11 -18 -24 -15 -13 -26 -33 -26 -44 0 -12 -9 -26 -20 -32 -11 -6 -20 -19 -20 -28 0 -10 -11 -34 -25 -55 -14 -20 -22 -37 -18 -37 4 0 2 -4 -6 -9 -16 -10 -73 2 -104 22 -21 14 -23 21 -19 77 4 61 4 62 -17 48 -13 -8 -24 -27 -28 -50 -3 -21 -9 -38 -14 -38 -5 0 -9 5 -9 10 0 6 -7 10 -16 10 -14 0 -16 8 -11 48 28 218 113 406 223 489 22 17 78 50 125 72 79 39 88 42 154 38 46 -3 85 -11 113 -26z m279 -1053 c4 -7 8 -19 8 -27 0 -18 25 -27 25 -10 0 18 30 49 48 49 12 0 10 -5 -6 -23 -28 -29 -28 -61 -1 -88 18 -18 23 -19 42 -6 31 20 34 64 6 93 -30 32 -5 31 27 -2 30 -29 27 -67 -8 -97 -25 -21 -76 -16 -95 9 -12 17 -14 17 -32 -2 -10 -11 -30 -20 -47 -19 -29 0 -29 1 -29 60 0 33 1 63 3 68 5 12 50 8 59 -5z m377 6 c9 -3 16 -17 16 -29 0 -34 18 -41 30 -11 8 23 47 53 56 43 2 -2 -5 -12 -16 -22 -22 -20 -25 -46 -10 -76 12 -21 50 -25 68 -7 19 19 14 66 -8 80 -11 7 -20 16 -20 20 0 16 22 7 46 -17 21 -21 24 -31 18 -58 -13 -61 -72 -76 -118 -31 -20 21 -26 23 -26 10 0 -17 -37 -36 -71 -36 -18 0 -19 5 -15 68 3 37 5 68 6 70 0 4 28 2 44 -4z m-1679 -110 c25 -8 55 -12 65 -9 27 8 27 -25 1 -49 -17 -16 -21 -15 -66 9 -60 32 -105 32 -141 2 -30 -26 -36 -76 -12 -104 14 -18 110 -63 133 -63 8 0 33 -18 56 -40 41 -38 41 -41 37 -94 -6 -68 -43 -120 -106 -148 -57 -25 -112 -18 -176 23 -49 31 -56 52 -24 73 14 8 23 5 45 -16 41 -37 66 -48 117 -48 65 0 101 33 101 93 0 59 -20 79 -109 113 -41 16 -85 41 -105 61 -30 30 -33 38 -29 78 7 59 31 93 81 116 51 23 73 23 132 3z m625 -4 c0 -5 -9 -14 -20 -20 -19 -10 -20 -21 -20 -225 0 -188 2 -215 16 -223 22 -12 10 -31 -19 -30 -78 1 -123 19 -77 31 19 5 20 14 20 211 0 176 -2 206 -15 206 -33 0 -12 27 33 42 56 19 82 22 82 8z m820 -116 c0 -32 2 -34 35 -34 28 0 35 -4 35 -20 0 -16 -7 -20 -35 -20 l-35 0 0 -129 c0 -140 8 -163 49 -142 13 7 22 8 26 1 10 -16 -3 -29 -42 -39 -36 -10 -69 -1 -85 23 -4 6 -8 73 -8 149 0 115 -2 137 -15 137 -25 0 -17 24 20 60 19 19 35 40 35 48 0 7 5 10 10 7 6 -3 10 -22 10 -41z m-1085 -43 c50 -22 64 -40 72 -84 6 -40 12 -36 -150 -78 -86 -22 -88 -23 -82 -48 3 -14 20 -38 37 -53 40 -35 94 -37 149 -6 21 12 42 18 46 14 12 -12 -10 -37 -57 -63 -97 -53 -202 -7 -230 100 -24 96 8 178 85 217 49 25 78 25 130 1z m548 -9 c26 -16 75 -97 64 -108 -3 -3 -56 -19 -118 -35 -63 -17 -118 -34 -122 -38 -12 -12 18 -66 45 -85 31 -22 96 -20 141 4 44 24 47 24 47 6 0 -8 -16 -27 -36 -42 -49 -38 -134 -44 -182 -15 -90 57 -109 200 -36 281 53 59 129 71 197 32z m377 -5 c22 -13 26 -37 8 -55 -8 -8 -19 -4 -45 18 -72 64 -163 25 -178 -75 -9 -57 18 -123 62 -152 34 -23 103 -22 138 1 33 22 53 11 28 -16 -71 -79 -217 -58 -263 37 -66 137 49 294 193 263 21 -5 47 -14 57 -21z m564 -10 c87 -67 99 -182 27 -260 -69 -76 -175 -84 -251 -21 -44 37 -61 78 -61 141 0 67 32 122 88 153 56 30 148 24 197 -13z m296 18 c33 -17 36 -25 19 -42 -9 -9 -23 -6 -56 10 -52 26 -78 16 -78 -29 0 -25 8 -33 60 -61 73 -39 95 -64 95 -112 -1 -42 -22 -71 -70 -96 -56 -29 -160 1 -160 46 0 31 26 33 67 5 48 -33 87 -34 108 -2 25 38 6 67 -68 105 -85 43 -108 90 -70 147 29 45 98 57 153 29z m3476 -1599 c-2 -323 -7 -591 -10 -594 -3 -3 -6 273 -5 614 0 424 3 611 10 594 7 -16 9 -231 5 -614z m-1471 564 c-4 -11 -17 -32 -31 -47 -26 -28 -25 -44 2 -22 15 12 16 11 9 -11 -5 -14 -10 -43 -11 -65 -1 -22 -2 -45 -3 -51 -1 -6 -12 -23 -25 -37 -14 -15 -29 -33 -33 -41 -16 -28 -104 -124 -199 -217 -241 -236 -499 -422 -714 -514 -149 -65 -142 -60 -80 -62 30 -1 352 -7 715 -13 676 -11 910 -18 899 -29 -3 -3 32 -15 78 -27 l83 -22 -695 -1 c-382 0 -1001 4 -1375 10 -374 6 -1693 14 -2932 18 -1983 5 -2254 8 -2267 21 -13 13 -13 18 -1 34 13 17 44 19 532 27 411 7 1895 5 4264 -5 74 0 122 4 131 11 7 6 97 43 198 82 504 191 810 360 1077 595 80 71 276 268 341 343 42 49 46 51 37 23z m-6235 -447 c0 -24 -1 -25 -13 -9 -9 12 -27 17 -62 18 -92 2 -135 -40 -135 -134 0 -32 7 -47 34 -74 29 -29 41 -34 83 -34 27 0 54 5 61 12 17 17 28 2 12 -17 -28 -34 -200 -7 -200 32 0 7 -4 13 -8 13 -11 0 -8 112 3 130 8 13 6 13 -8 1 -22 -17 -22 -2 -1 28 32 45 73 61 157 61 77 0 77 0 77 -27z m199 0 c-1 -18 -3 -22 -6 -10 -4 15 -13 17 -51 15 l-47 -3 0 -50 c0 -47 1 -50 28 -53 16 -2 35 2 43 9 12 9 14 7 14 -16 0 -23 -2 -25 -14 -16 -8 7 -27 11 -43 9 -27 -3 -28 -6 -31 -60 l-3 -58 45 0 c32 0 48 5 56 18 9 15 10 14 8 -8 -3 -24 -6 -25 -87 -28 -68 -2 -82 0 -74 10 6 7 14 59 18 116 6 86 5 106 -9 127 l-16 25 85 0 85 0 -1 -27z m316 21 c21 -8 48 -61 39 -77 -4 -7 -16 -22 -27 -34 -18 -20 -18 -23 -4 -23 22 0 56 -56 50 -81 -11 -41 -51 -59 -130 -59 -71 0 -73 1 -69 23 3 12 7 70 11 129 5 95 4 108 -12 117 -14 8 -1 10 54 11 39 0 79 -3 88 -6z m320 -25 c62 -55 68 -138 13 -199 -69 -77 -201 -63 -245 25 -16 32 -24 75 -14 75 5 0 12 -12 14 -27 3 -18 4 -12 5 17 1 32 -1 41 -8 30 -16 -24 -11 4 6 39 24 48 68 71 136 71 50 0 62 -4 93 -31z"></path>
    <path d="M4103 4183 c-13 -3 -32 -16 -43 -30 -20 -25 -37 -89 -27 -99 5 -5 53 7 175 42 19 6 14 39 -10 61 -25 22 -61 32 -95 26z"></path>
    <path d="M4610 4167 c-28 -22 -50 -61 -50 -89 0 -32 8 -34 71 -14 24 7 63 19 87 26 23 7 42 17 42 21 0 4 -12 21 -26 38 -21 26 -33 31 -67 31 -23 0 -49 -6 -57 -13z"></path>
    <path d="M5504 4144 c-30 -31 -34 -42 -34 -90 0 -92 35 -148 103 -164 42 -9 89 9 111 42 39 62 26 160 -29 215 -27 27 -41 33 -75 33 -36 0 -48 -6 -76 -36z"></path>
    <path d="M2453 2714 c-54 -27 -77 -102 -52 -172 22 -65 110 -84 161 -35 15 15 28 33 28 40 0 8 4 12 8 9 11 -7 -2 95 -15 120 -26 47 -80 63 -130 38z"></path>
  </g>
</svg>
